<?xml version="1.0" standalone="no"?>
<!DOCTYPE svg PUBLIC "-//W3C//DTD SVG 20010904//EN"
 "http://www.w3.org/TR/2001/REC-SVG-20010904/DTD/svg10.dtd">
<svg version="1.0" xmlns="http://www.w3.org/2000/svg"
 width="177.000000pt" height="187.000000pt" viewBox="0 0 177.000000 187.000000"
 preserveAspectRatio="xMidYMid meet">
<metadata>
Created by potrace 1.10, written by Peter Selinger 2001-2011
</metadata>
<g transform="translate(0.000000,187.000000) scale(0.100000,-0.100000)"
fill="#000000" stroke="none">
<path d="M291 1526 c-8 -9 -11 -52 -9 -132 l3 -119 30 0 30 0 3 97 3 97 97 3
97 3 0 30 0 30 -121 3 c-95 2 -124 0 -133 -12z"/>
<path d="M1290 1525 c-6 -8 -10 -22 -8 -32 3 -15 16 -18 90 -21 l87 -3 3 -97
3 -97 30 0 30 0 3 119 c2 78 -1 123 -9 132 -17 20 -212 20 -229 -1z"/>
<path d="M442 1378 c-17 -17 -17 -909 0 -926 14 -14 44 -16 53 -2 7 12 7 918
0 930 -9 14 -39 12 -53 -2z"/>
<path d="M615 1380 c-3 -5 -6 -186 -6 -402 1 -354 2 -394 17 -405 12 -9 22 -9
35 -2 18 9 19 30 19 402 0 292 -3 396 -12 405 -14 14 -45 16 -53 2z"/>
<path d="M792 1378 c-17 -17 -17 -909 0 -926 14 -14 44 -16 53 -2 7 12 7 918
0 930 -9 14 -39 12 -53 -2z"/>
<path d="M965 1380 c-3 -5 -6 -186 -6 -402 1 -354 2 -394 17 -405 12 -9 22 -9
35 -2 18 9 19 30 19 402 0 292 -3 396 -12 405 -14 14 -45 16 -53 2z"/>
<path d="M1142 1378 c-9 -9 -12 -113 -12 -405 0 -372 1 -393 19 -402 13 -7 23
-7 35 2 15 11 16 51 17 405 0 216 -3 397 -6 402 -8 14 -39 12 -53 -2z"/>
<path d="M1315 1380 c-7 -12 -7 -918 0 -931 9 -13 39 -11 53 3 17 17 17 909 0
926 -14 14 -44 16 -53 2z"/>
<path d="M286 545 c-11 -31 -7 -230 6 -243 14 -14 225 -17 246 -3 8 4 12 19
10 32 -3 23 -6 24 -100 27 l-97 3 -3 97 c-3 96 -3 97 -29 100 -17 2 -29 -3
-33 -13z"/>
<path d="M1467 553 c-4 -3 -7 -48 -7 -99 l0 -93 -97 -3 c-95 -3 -98 -4 -101
-27 -2 -13 2 -28 10 -32 21 -14 232 -11 246 3 13 13 17 212 6 242 -6 16 -45
22 -57 9z"/>
<path d="M620 500 c-16 -16 -18 -25 -10 -40 12 -22 40 -26 58 -8 18 18 14 46
-8 58 -15 8 -24 6 -40 -10z"/>
<path d="M970 500 c-16 -16 -18 -25 -10 -40 12 -22 40 -26 58 -8 18 18 14 46
-8 58 -15 8 -24 6 -40 -10z"/>
<path d="M1147 509 c-32 -18 -14 -69 25 -69 19 0 38 28 31 48 -8 20 -37 31
-56 21z"/>
</g>
</svg>
